# MagicaVoxel @ Ephtracy

# group
g alarmClock

# material
mtllib alarmClock.mtl
usemtl palette

# normals
vn -1 0 0
vn 1 0 0
vn 0 0 1
vn 0 0 -1
vn 0 -1 0
vn 0 1 0

# texcoords
vt 0.306641 0.5
vt 0.439453 0.5
vt 0.833984 0.5
vt 0.845703 0.5
vt 0.966797 0.5
vt 0.994141 0.5

# verts
v -20 0 20
v -20 0 -20
v -20 2 14
v -20 2 11
v -20 2 -3
v -20 2 -4
v -20 2 -11
v -20 2 -14
v -20 3 15
v -20 3 14
v -20 3 11
v -20 3 10
v -20 3 -10
v -20 3 -11
v -20 3 -14
v -20 3 -15
v -20 4 13
v -20 4 12
v -20 4 8
v -20 4 3
v -20 4 -1
v -20 4 -3
v -20 4 -4
v -20 4 -6
v -20 4 -12
v -20 4 -13
v -20 5 13
v -20 5 12
v -20 5 8
v -20 5 3
v -20 5 -1
v -20 5 -3
v -20 5 -4
v -20 5 -6
v -20 5 -12
v -20 5 -13
v -20 6 15
v -20 6 14
v -20 6 11
v -20 6 10
v -20 6 -10
v -20 6 -11
v -20 6 -14
v -20 6 -15
v -20 7 14
v -20 7 11
v -20 7 -3
v -20 7 -4
v -20 7 -11
v -20 7 -14
v -20 9 20
v -20 9 -20
v -20 10 19
v -20 10 -19
v -20 22 19
v -20 22 -19
v -20 23 20
v -20 23 -20
v 20 0 20
v 20 0 -20
v 20 23 20
v 20 23 -20
v -20 0 20
v -20 9 20
v -20 23 20
v -19 9 20
v -19 23 20
v 20 0 20
v 20 23 20
v -20 0 -20
v -20 9 -20
v -20 23 -20
v -19 9 -20
v -19 23 -20
v 20 0 -20
v 20 23 -20
v -20 0 20
v 20 0 20
v -20 0 -20
v 20 0 -20
v -20 23 20
v -19 23 20
v 20 23 20
v -20 23 -20
v -19 23 -20
v 20 23 -20

# faces
f 3/6/1 2/6/1 1/6/1
f 4/6/1 2/6/1 3/6/1
f 5/6/1 2/6/1 4/6/1
f 6/6/1 2/6/1 5/6/1
f 7/6/1 2/6/1 6/6/1
f 8/6/1 2/6/1 7/6/1
f 9/6/1 3/6/1 1/6/1
f 10/4/1 4/4/1 3/4/1
f 10/6/1 3/6/1 9/6/1
f 11/6/1 5/6/1 4/6/1
f 11/4/1 4/4/1 10/4/1
f 12/6/1 5/6/1 11/6/1
f 13/6/1 7/6/1 6/6/1
f 14/2/1 8/2/1 7/2/1
f 14/6/1 7/6/1 13/6/1
f 15/6/1 2/6/1 8/6/1
f 15/2/1 8/2/1 14/2/1
f 16/6/1 2/6/1 15/6/1
f 17/4/1 10/4/1 9/4/1
f 17/4/1 11/4/1 10/4/1
f 17/4/1 12/4/1 11/4/1
f 18/4/1 12/4/1 17/4/1
f 19/6/1 5/6/1 12/6/1
f 20/6/1 5/6/1 19/6/1
f 21/6/1 5/6/1 20/6/1
f 22/5/1 6/5/1 5/5/1
f 22/6/1 5/6/1 21/6/1
f 23/6/1 13/6/1 6/6/1
f 23/5/1 6/5/1 22/5/1
f 24/6/1 13/6/1 23/6/1
f 25/2/1 14/2/1 13/2/1
f 25/2/1 16/2/1 15/2/1
f 25/2/1 15/2/1 14/2/1
f 26/2/1 16/2/1 25/2/1
f 27/4/1 17/4/1 9/4/1
f 27/6/1 18/6/1 17/6/1
f 28/4/1 12/4/1 18/4/1
f 28/6/1 18/6/1 27/6/1
f 29/6/1 19/6/1 12/6/1
f 29/5/1 20/5/1 19/5/1
f 30/6/1 21/6/1 20/6/1
f 30/5/1 20/5/1 29/5/1
f 31/5/1 22/5/1 21/5/1
f 31/6/1 21/6/1 30/6/1
f 31/5/1 24/5/1 23/5/1
f 31/5/1 23/5/1 22/5/1
f 32/5/1 24/5/1 31/5/1
f 33/5/1 24/5/1 32/5/1
f 34/6/1 13/6/1 24/6/1
f 34/5/1 24/5/1 33/5/1
f 35/2/1 25/2/1 13/2/1
f 35/6/1 26/6/1 25/6/1
f 36/2/1 16/2/1 26/2/1
f 36/6/1 26/6/1 35/6/1
f 37/6/1 9/6/1 1/6/1
f 37/4/1 27/4/1 9/4/1
f 37/4/1 28/4/1 27/4/1
f 38/4/1 28/4/1 37/4/1
f 39/4/1 12/4/1 28/4/1
f 39/4/1 28/4/1 38/4/1
f 40/6/1 29/6/1 12/6/1
f 40/4/1 12/4/1 39/4/1
f 40/6/1 30/6/1 29/6/1
f 40/6/1 32/6/1 31/6/1
f 40/6/1 31/6/1 30/6/1
f 41/2/1 36/2/1 35/2/1
f 41/6/1 13/6/1 34/6/1
f 41/2/1 35/2/1 13/2/1
f 41/6/1 34/6/1 33/6/1
f 42/2/1 36/2/1 41/2/1
f 43/2/1 16/2/1 36/2/1
f 43/2/1 36/2/1 42/2/1
f 44/6/1 2/6/1 16/6/1
f 44/2/1 16/2/1 43/2/1
f 45/4/1 39/4/1 38/4/1
f 45/6/1 38/6/1 37/6/1
f 46/6/1 40/6/1 39/6/1
f 46/4/1 39/4/1 45/4/1
f 47/5/1 33/5/1 32/5/1
f 47/6/1 40/6/1 46/6/1
f 47/6/1 32/6/1 40/6/1
f 48/6/1 42/6/1 41/6/1
f 48/5/1 33/5/1 47/5/1
f 48/6/1 41/6/1 33/6/1
f 49/2/1 43/2/1 42/2/1
f 49/6/1 42/6/1 48/6/1
f 50/6/1 44/6/1 43/6/1
f 50/2/1 43/2/1 49/2/1
f 51/6/1 46/6/1 45/6/1
f 51/6/1 47/6/1 46/6/1
f 51/6/1 50/6/1 49/6/1
f 51/6/1 45/6/1 37/6/1
f 51/6/1 37/6/1 1/6/1
f 51/6/1 49/6/1 48/6/1
f 51/6/1 48/6/1 47/6/1
f 52/6/1 44/6/1 50/6/1
f 52/6/1 50/6/1 51/6/1
f 52/6/1 2/6/1 44/6/1
f 53/3/1 52/3/1 51/3/1
f 54/3/1 52/3/1 53/3/1
f 55/3/1 53/3/1 51/3/1
f 55/6/1 54/6/1 53/6/1
f 56/3/1 52/3/1 54/3/1
f 56/6/1 54/6/1 55/6/1
f 57/3/1 55/3/1 51/3/1
f 57/3/1 56/3/1 55/3/1
f 58/3/1 52/3/1 56/3/1
f 58/3/1 56/3/1 57/3/1
f 59/6/2 60/6/2 61/6/2
f 61/6/2 60/6/2 62/6/2
f 66/6/3 64/6/3 63/6/3
f 66/3/3 65/3/3 64/3/3
f 67/3/3 65/3/3 66/3/3
f 68/6/3 66/6/3 63/6/3
f 68/6/3 67/6/3 66/6/3
f 69/6/3 67/6/3 68/6/3
f 70/6/4 71/6/4 73/6/4
f 71/3/4 72/3/4 73/3/4
f 73/3/4 72/3/4 74/3/4
f 70/6/4 73/6/4 75/6/4
f 73/6/4 74/6/4 75/6/4
f 75/6/4 74/6/4 76/6/4
f 79/6/5 78/6/5 77/6/5
f 80/6/5 78/6/5 79/6/5
f 81/3/6 82/3/6 84/3/6
f 82/6/6 83/6/6 85/6/6
f 84/3/6 82/3/6 85/3/6
f 85/6/6 83/6/6 86/6/6
